<?xml version="1.0" encoding="UTF-8" standalone="no"?>
<svg
   version="1.1"
   viewBox="0 0 500 200"
   id="svg17"
   sodipodi:docname="usb-2705872.svg"
   width="500"
   height="200"
   inkscape:version="1.4.3 (fcd0343856, 2026-01-01)"
   xmlns:inkscape="http://www.inkscape.org/namespaces/inkscape"
   xmlns:sodipodi="http://sodipodi.sourceforge.net/DTD/sodipodi-0.dtd"
   xmlns="http://www.w3.org/2000/svg"
   xmlns:svg="http://www.w3.org/2000/svg">
  <defs
     id="defs17" />
  <sodipodi:namedview
     id="namedview17"
     pagecolor="#505050"
     bordercolor="#eeeeee"
     borderopacity="1"
     inkscape:showpageshadow="0"
     inkscape:pageopacity="0"
     inkscape:pagecheckerboard="0"
     inkscape:deskcolor="#d1d1d1"
     inkscape:zoom="0.63422131"
     inkscape:cx="300.36834"
     inkscape:cy="740.27787"
     inkscape:window-width="1416"
     inkscape:window-height="1752"
     inkscape:window-x="1450"
     inkscape:window-y="10"
     inkscape:window-maximized="1"
     inkscape:current-layer="svg17" />
  <path
     d="m 393.31401,65.158146 -37.038,-0.4288 -0.002,0.0597 0.58874,27.284 6.472,4.7018 h 23.657 l 5.5066,-5.4582 0.8152,-26.152"
     id="path1" />
  <path
     d="m 432.77401,93.448146 -2.1126,3.4176 0.0794,18.178004 17.307,0.0997 -0.35547,-18.586004 -2.1843,-3.0634 -12.702,-0.0461"
     id="path2" />
  <path
     d="m 423.28401,62.598146 q -12.972,0.59135 -17.904,13.892 -1.7743,4.984 -2.1874,13.47 -0.39218,1.6026 0.20566,29.480004 -0.0638,6.2022 -0.6283,10.021 -1.2517,9.2748 -6.7852,11.952 -4.3995,2.0987 -9.5327,0.47575 -4.8581,-1.5738 -6.8868,-5.8816 -1.8898,-3.7948 -2.1824,-12.197 -0.40947,-7.5671 0.31718,-33.896004 -0.58566,-2.4345 -3.2252,-2.8559 -2.6134,-0.0792 -3.6731,2.3694 -0.9748,17.403004 -0.6473,33.146004 0.18295,9.0175 1.8842,13.896 4.1619,12.451 18.828,13.282 13.175,-0.32873 17.705,-13.426 1.5638,-4.7227 1.9066,-12.864 0.332,-1.3557 -0.2486,-27.934004 0.0389,-6.0076 0.49608,-9.8517 0.89847,-8.9174 5.2665,-13.013 3.3062,-2.9625 7.4564,-2.8823 4.5228,0.20234 7.2361,3.1093 2.6756,2.8553 3.8117,8.9458 0.4923,2.5579 0.79032,6.2158 0.34898,4.2226 0.48708,11.945 0.0312,0.690644 0.3037,1.303404 1.1583,2.1629 3.3661,2.1343 2.2165,-0.0714 3.273,-2.3126 0.63455,-20.242004 -3.7866,-28.700004 -4.6293,-9.289 -15.545,-9.8225"
     id="path3" />
  <path
     d="m 363.41401,36.678146 q -1.7145,0.12701 -2.0198,1.8498 l -0.28424,22.571 q 0.14032,1.8916 2.0009,2.0839 1.7166,-0.10452 2.044,-1.8239 l 0.26078,-20.5 q -0.0222,-0.1528 0.0494,-0.10846 l 18.995,0.17615 -0.0412,20.083 q 0.45005,1.6184 2.1805,1.6062 1.6874,-0.31246 1.8327,-1.9761 l 0.0916,-21.795 q -0.0255,-0.81172 -0.6059,-1.4002 -0.5553,-0.53732 -1.3379,-0.57983 l -23.147,-0.18613"
     id="path4" />
  <path
     d="m 443.65401,111.64815 q -0.94732,0.0795 -1.1447,1.0324 l -0.099,8.6867 -5.5838,0.15106 0.0406,-8.3736 q 7.6e-4,-0.18252 -0.0329,-0.30837 -0.2054,-0.7228 -0.95285,-0.88264 -0.73227,-0.0978 -1.1814,0.52787 -0.17801,0.28842 -0.18411,0.59893 l -0.0498,9.7467 q 0.15727,0.99573 1.1948,1.0753 l 8.0215,-0.21903 q 0.57169,-0.0671 0.88042,-0.52557 0.18123,-0.27346 0.19288,-0.61986 l 0.0941,-9.7946 q -0.17181,-1.0286 -1.1785,-1.0955"
     id="path5" />
  <path
     d="m 367.95401,44.208146 -0.02,4.1386 q 8e-5,0.004 0.0237,0.003 l 4.496,0.0217 0.0207,-4.138 -4.519,-0.0251"
     id="path6" />
  <path
     d="m 377.17401,44.118146 -0.02,4.1386 q 9e-5,0.004 0.0237,0.003 l 4.496,0.0217 0.0206,-4.138 -4.519,-0.0251"
     id="path7" />
  <path
     d="m 245.89401,64.128146 -36.139,0.57133 -1.1666,34.747 10.113,15.476004 -0.18673,9.6513 17.847,-0.0622 0.19474,-9.4293 9.2486,-16.212004 0.0885,-34.709"
     id="path8" />
  <path
     d="m 224.23401,123.67815 0.32476,21.692 6.8215,0.0278 -0.0701,-21.475 -7.0677,-0.24412"
     id="path9" />
  <path
     d="m 236.01401,128.19815 -16.805,0.2452 v 7.8368 l 16.909,-0.0322 -0.10315,-8.0344"
     id="path10" />
  <path
     d="m 216.65401,36.638146 q -1.4998,0.11404 -1.75,1.6147 l -0.28435,22.569 q 0.10323,1.5918 1.7438,1.78 1.5,-0.10988 1.7545,-1.6097 l 0.26565,-20.842 18.275,0.0786 -0.0662,19.78 q 0.37186,1.4738 1.8774,1.4651 1.4837,-0.26653 1.6041,-1.7104 l 0.0968,-21.302 q -6.1e-4,-0.672 -0.52306,-1.2261 -0.4933,-0.47247 -1.1704,-0.50222 l -21.821,-0.0945"
     id="path11" />
  <path
     d="m 221.10401,43.978146 -0.009,4.3352 3.9612,0.006 0.007,-4.3322 -3.9562,-0.009"
     id="path12" />
  <path
     d="m 229.93401,43.818146 -0.009,4.3352 3.9612,0.006 0.007,-4.3322 -3.9561,-0.009"
     id="path13" />
  <path
     d="m 93.504006,64.178146 -37.302,0.55149 0.3818,74.773004 4.4052,3.3077 29.407,-0.0822 3.2596,-3.7792 -0.15144,-74.638004"
     id="path14" />
  <path
     d="m 86.604006,37.328146 -23.396,-0.18677 q -0.77789,0.0168 -1.3012,0.5846 -0.42672,0.48895 -0.44535,1.133 l 0.21536,23.065 q 0.21336,1.4767 1.7237,1.6313 1.5125,-0.087 1.7726,-1.6351 l -0.19139,-21.259 19.819,0.1568 0.0874,20.926 q 0.19463,1.0572 1.2239,1.4199 1.0671,0.27426 1.8187,-0.51242 0.4265,-0.48978 0.44265,-1.1342 l -0.0515,-22.55 q -0.20714,-1.4775 -1.7167,-1.6385"
     id="path15" />
  <path
     d="m 68.424006,43.848146 -0.0485,4.3967 q -0.0145,0.011 0.0333,0.008 l 4.0463,0.0435 0.0485,-4.3967 -4.0737,-0.0512"
     id="path16" />
  <path
     d="m 77.484006,43.798146 -0.0485,4.3967 q -0.0145,0.011 0.0333,0.008 l 4.0463,0.0435 0.0485,-4.3967 -4.0737,-0.0512"
     id="path17" />
</svg>
